<?xml version="1.0" encoding="UTF-8" standalone="no"?>
<svg
   viewBox="0 0 633.21819 195.9292"
   width="633.2182"
   height="195.9292"
   version="1.1"
   id="svg238"
   sodipodi:docname="fbmx-zero-settings-3.svg"
   inkscape:version="1.2.1 (9c6d41e410, 2022-07-14)"
   xmlns:inkscape="http://www.inkscape.org/namespaces/inkscape"
   xmlns:sodipodi="http://sodipodi.sourceforge.net/DTD/sodipodi-0.dtd"
   xmlns="http://www.w3.org/2000/svg"
   xmlns:svg="http://www.w3.org/2000/svg">
  <sodipodi:namedview
     id="namedview240"
     pagecolor="#ffffff"
     bordercolor="#666666"
     borderopacity="1.0"
     inkscape:showpageshadow="2"
     inkscape:pageopacity="0.0"
     inkscape:pagecheckerboard="0"
     inkscape:deskcolor="#d1d1d1"
     showgrid="false"
     inkscape:zoom="3.4493828"
     inkscape:cx="323.39119"
     inkscape:cy="144.95347"
     inkscape:window-width="3816"
     inkscape:window-height="2136"
     inkscape:window-x="0"
     inkscape:window-y="0"
     inkscape:window-maximized="1"
     inkscape:current-layer="g236" />
  <desc
     id="desc180">fbmx-zero.dxf - scale = 1.000000, origin = (0.000000, 0.000000), method = manual</desc>
  <defs
     id="defs194">
    <marker
       id="DistanceX"
       orient="auto"
       refX="0"
       refY="0"
       style="overflow:visible">
      <path
         d="M 3,-3 -3,3 M 0,-5 V 5"
         style="stroke:#000000;stroke-width:0.5"
         id="path182" />
    </marker>
    <pattern
       id="Hatch"
       patternUnits="userSpaceOnUse"
       width="8"
       height="8"
       x="0"
       y="0">
      <path
         d="M8 4 l-4,4"
         stroke="#000000"
         stroke-width="0.25"
         linecap="square"
         id="path185" />
      <path
         d="M6 2 l-4,4"
         stroke="#000000"
         stroke-width="0.25"
         linecap="square"
         id="path187" />
      <path
         d="M4 0 l-4,4"
         stroke="#000000"
         stroke-width="0.25"
         linecap="square"
         id="path189" />
    </pattern>
    <symbol
       id="*MODEL_SPACE" />
    <symbol
       id="*PAPER_SPACE" />
  </defs>
  <g
     inkscape:groupmode="layer"
     inkscape:label="0"
     id="g236"
     transform="translate(259.96456,-1006.5551)">
    <path
       d="m 355.7458,1007.0551 a 17.007874,17.007874 0 0 1 17.00787,17.0079 v 160.9134 a 17.007874,17.007874 0 0 1 -17.00787,17.0079 h -598.20246 a 17.007874,17.007874 0 0 1 -17.0079,-17.0079 V 1024.063 a 17.007874,17.007874 0 0 1 17.0079,-17.0079 z"
       style="display:inline;fill:#dcdcdc;fill-opacity:1;stroke:#000000;stroke-width:1.88976;stroke-dasharray:none"
       id="path232" />
    <path
       d="m -15.788863,1169.5559 h 79.37 a 5.669291,5.669291 0 0 0 5.6693,-5.6693 v -37.7953 a 5.669291,5.669291 0 0 0 -5.6693,-5.6693 h -79.37 a 5.669291,5.669291 0 0 0 -5.6693,5.6693 v 37.7953 a 5.669291,5.669291 0 0 0 5.6693,5.6693 z"
       style="fill:#000000;stroke:#000000;stroke-width:1.88976378;stroke-dasharray:none;fill-opacity:1"
       id="path196" />
    <path
       d="m 141.48434,1111.4646 v -49.8898 a 3.250394,3.250394 0 0 0 -3.2504,-3.2504 H 88.344237 a 3.250394,3.250394 0 0 0 -3.2504,3.2504 v 49.8898 a 3.250394,3.250394 0 0 0 3.2504,3.2504 h 49.889703 a 3.250394,3.250394 0 0 0 3.2504,-3.2504 z"
       style="fill:#ffffff;stroke:#000000;stroke-width:1.88976378;stroke-dasharray:none;fill-opacity:1"
       id="path198" />
    <path
       d="m -91.207363,1117.6157 -17.577097,46.6908 a 3.250394,3.250394 0 0 0 1.8968,4.1872 l 46.690797,17.5771 a 3.250394,3.250394 0 0 0 4.1871,-1.8968 l 17.5772,-46.6908 a 3.250394,3.250394 0 0 0 -1.8968,-4.1871 l -46.6908,-17.5772 a 3.250394,3.250394 0 0 0 -4.1872,1.8968 z"
       style="fill:#ffffff;stroke:#000000;stroke-width:1.88976378;stroke-dasharray:none;fill-opacity:1"
       id="path200" />
    <path
       d="m 301.09383,1097.5748 v 49.8898 a 3.250394,3.250394 0 0 0 3.25039,3.2504 h 49.88977 a 3.250394,3.250394 0 0 0 3.25039,-3.2504 v -49.8898 a 3.250394,3.250394 0 0 0 -3.25039,-3.2504 h -49.88977 a 3.250394,3.250394 0 0 0 -3.25039,3.2504 z"
       style="fill:#ffffff;stroke:#000000;stroke-width:1.88976378;stroke-dasharray:none;fill-opacity:1"
       id="path202" />
    <path
       d="m 157.09384,1097.5748 v 49.8898 a 3.250394,3.250394 0 0 0 3.2504,3.2504 h 49.88975 a 3.250394,3.250394 0 0 0 3.25039,-3.2504 v -49.8898 a 3.250394,3.250394 0 0 0 -3.25039,-3.2504 h -49.88975 a 3.250394,3.250394 0 0 0 -3.2504,3.2504 z"
       style="fill:#ffffff;stroke:#000000;stroke-width:1.88976378;stroke-dasharray:none;fill-opacity:1"
       id="path204" />
    <path
       d="m -225.97396,1066.8816 -17.5772,46.6908 a 3.250394,3.250394 0 0 0 1.8968,4.1872 l 46.6908,17.5771 a 3.250394,3.250394 0 0 0 4.1872,-1.8968 l 17.5771,-46.6908 a 3.250394,3.250394 0 0 0 -1.8968,-4.1871 l -46.6908,-17.5772 a 3.250394,3.250394 0 0 0 -4.1871,1.8968 z"
       style="fill:#ffffff;stroke:#000000;stroke-width:1.88976378;stroke-dasharray:none;fill-opacity:1"
       id="path206" />
    <path
       d="m 157.09384,1025.5748 v 49.8898 a 3.250394,3.250394 0 0 0 3.2504,3.2504 h 49.88975 a 3.250394,3.250394 0 0 0 3.25039,-3.2504 v -49.8898 a 3.250394,3.250394 0 0 0 -3.25039,-3.2504 h -49.88975 a 3.250394,3.250394 0 0 0 -3.2504,3.2504 z"
       style="fill:#ffffff;stroke:#000000;stroke-width:1.88976378;stroke-dasharray:none;fill-opacity:1"
       id="path208" />
    <path
       d="m 161.06234,1176.4252 a 9.864567,9.864567 0 0 0 19.72913,0 9.864567,9.864567 0 0 0 -19.72913,0 z"
       style="fill:#000000;stroke:#000000;stroke-width:1.88976378;stroke-dasharray:none;fill-opacity:1"
       id="path210" />
    <path
       d="m 204.43241,1176.4252 a 9.86457,9.86457 0 0 0 19.72914,0 9.86457,9.86457 0 0 0 -19.72914,0 z"
       style="fill:#000000;stroke:#000000;stroke-width:1.88976378;stroke-dasharray:none;fill-opacity:1"
       id="path212" />
    <path
       d="m 247.80249,1176.4252 a 9.86457,9.86457 0 0 0 19.72914,0 9.86457,9.86457 0 0 0 -19.72914,0 z"
       style="fill:#000000;stroke:#000000;stroke-width:1.88976378;stroke-dasharray:none;fill-opacity:1"
       id="path214" />
    <path
       d="m 291.17257,1176.4252 a 9.864567,9.864567 0 0 0 19.72913,0 9.864567,9.864567 0 0 0 -19.72913,0 z"
       style="fill:#000000;stroke:#000000;stroke-width:1.88976378;stroke-dasharray:none;fill-opacity:1"
       id="path216" />
    <path
       d="m 334.54265,1176.4252 a 9.864567,9.864567 0 0 0 19.72913,0 9.864567,9.864567 0 0 0 -19.72913,0 z"
       style="fill:#000000;stroke:#000000;stroke-width:1.88976378;stroke-dasharray:none;fill-opacity:1"
       id="path218" />
    <path
       d="m 229.09383,1097.5748 v 49.8898 a 3.250394,3.250394 0 0 0 3.25039,3.2504 h 49.88977 a 3.250394,3.250394 0 0 0 3.25039,-3.2504 v -49.8898 a 3.250394,3.250394 0 0 0 -3.25039,-3.2504 h -49.88977 a 3.250394,3.250394 0 0 0 -3.25039,3.2504 z"
       style="fill:#ffffff;stroke:#000000;stroke-width:1.88976378;stroke-dasharray:none;fill-opacity:1"
       id="path220" />
    <path
       d="m -158.59066,1092.2487 -17.5772,46.6908 a 3.250394,3.250394 0 0 0 1.8968,4.1871 l 46.6908,17.5772 a 3.250394,3.250394 0 0 0 4.1872,-1.8968 l 17.5772,-46.6908 a 3.250394,3.250394 0 0 0 -1.8968,-4.1872 l -46.6908,-17.5771 a 3.250394,3.250394 0 0 0 -4.1872,1.8968 z"
       style="fill:#ffffff;stroke:#000000;stroke-width:1.88976378;stroke-dasharray:none;fill-opacity:1"
       id="path222" />
    <path
       d="m 141.48434,1183.4646 v -49.8898 a 3.250394,3.250394 0 0 0 -3.2504,-3.2504 H 88.344237 a 3.250394,3.250394 0 0 0 -3.2504,3.2504 v 49.8898 a 3.250394,3.250394 0 0 0 3.2504,3.2504 h 49.889703 a 3.250394,3.250394 0 0 0 3.2504,-3.2504 z"
       style="fill:#ffffff;stroke:#000000;stroke-width:1.88976378;stroke-dasharray:none;fill-opacity:1"
       id="path224" />
    <path
       d="m 229.09383,1025.5748 v 49.8898 a 3.250394,3.250394 0 0 0 3.25039,3.2504 h 49.88977 a 3.250394,3.250394 0 0 0 3.25039,-3.2504 v -49.8898 a 3.250394,3.250394 0 0 0 -3.25039,-3.2504 h -49.88977 a 3.250394,3.250394 0 0 0 -3.25039,3.2504 z"
       style="fill:#ffffff;stroke:#000000;stroke-width:1.88976378;stroke-dasharray:none;fill-opacity:1"
       id="path226" />
    <path
       d="m -82.345663,1040.5457 -46.690797,-17.5772 a 3.250394,3.250394 0 0 0 -4.1871,1.8968 l -17.5772,46.6908 a 3.250394,3.250394 0 0 0 1.8968,4.1872 l 46.6908,17.5772 a 3.250394,3.250394 0 0 0 4.187197,-1.8968 l 17.5771,-46.6908 a 3.250394,3.250394 0 0 0 -1.8968,-4.1872 z"
       style="fill:#ffffff;stroke:#000000;stroke-width:1.88976378;stroke-dasharray:none;fill-opacity:1"
       id="path228" />
    <path
       d="m 301.09383,1025.5748 v 49.8898 a 3.250394,3.250394 0 0 0 3.25039,3.2504 h 49.88977 a 3.250394,3.250394 0 0 0 3.25039,-3.2504 v -49.8898 a 3.250394,3.250394 0 0 0 -3.25039,-3.2504 h -49.88977 a 3.250394,3.250394 0 0 0 -3.25039,3.2504 z"
       style="fill:#ffffff;stroke:#000000;stroke-width:1.88976378;stroke-dasharray:none;fill-opacity:1"
       id="path230" />
    <path
       d="m 35.801637,1069.7197 a 5.102362,5.102362 0 0 0 10.2047,0 5.102362,5.102362 0 0 0 -10.2047,0 z"
       style="fill:none;stroke:#000000;stroke-width:1.88976378;stroke-dasharray:none"
       id="path234" />
    <text
       xml:space="preserve"
       style="font-style:normal;font-weight:normal;font-size:40px;line-height:1.25;font-family:sans-serif;letter-spacing:0px;word-spacing:0px;fill:#000000;fill-opacity:1;stroke:none"
       x="-48.118462"
       y="1040.4436"
       id="text1809"><tspan
         sodipodi:role="line"
         id="tspan1807"
         x="-48.118462"
         y="1040.4436" /></text>
    <text
       xml:space="preserve"
       style="font-style:normal;font-weight:normal;font-size:13.3333px;line-height:1.25;font-family:sans-serif;letter-spacing:0px;word-spacing:0px;fill:#000000;fill-opacity:1;stroke:none"
       x="113.22338"
       y="1162.448"
       id="text1813"><tspan
         sodipodi:role="line"
         x="113.22338"
         y="1162.448"
         style="font-style:normal;font-variant:normal;font-weight:bold;font-stretch:normal;font-size:13.3333px;font-family:nunito;-inkscape-font-specification:'nunito Bold';text-align:center;text-anchor:middle"
         id="tspan1815">Switch</tspan></text>
    <text
       xml:space="preserve"
       style="font-style:normal;font-weight:normal;font-size:13.3333px;line-height:1.25;font-family:sans-serif;letter-spacing:0px;word-spacing:0px;fill:#000000;fill-opacity:1;stroke:none"
       x="184.88193"
       y="1118.8959"
       id="text1813-1"><tspan
         sodipodi:role="line"
         x="184.88193"
         y="1118.8959"
         style="font-style:normal;font-variant:normal;font-weight:bold;font-stretch:normal;font-size:13.3333px;font-family:nunito;-inkscape-font-specification:'nunito Bold';text-align:center;text-anchor:middle"
         id="tspan1897">XInput</tspan><tspan
         sodipodi:role="line"
         x="184.88193"
         y="1136.1448"
         style="font-style:normal;font-variant:normal;font-weight:bold;font-stretch:normal;font-size:13.3333px;font-family:nunito;-inkscape-font-specification:'nunito Bold';text-align:center;text-anchor:middle"
         id="tspan1936">(PC)</tspan></text>
    <text
       xml:space="preserve"
       style="font-style:normal;font-weight:normal;font-size:13.3333px;line-height:1.25;font-family:sans-serif;letter-spacing:0px;word-spacing:0px;fill:#000000;fill-opacity:1;stroke:none"
       x="112.31969"
       y="1073.8833"
       id="text1813-1-4"><tspan
         sodipodi:role="line"
         x="112.31969"
         y="1073.8833"
         style="font-style:normal;font-variant:normal;font-weight:bold;font-stretch:normal;font-size:13.3333px;font-family:nunito;-inkscape-font-specification:'nunito Bold';text-align:center;text-anchor:middle"
         id="tspan1897-7">Direct</tspan><tspan
         sodipodi:role="line"
         x="112.31969"
         y="1091.1322"
         style="font-style:normal;font-variant:normal;font-weight:bold;font-stretch:normal;font-size:13.3333px;font-family:nunito;-inkscape-font-specification:'nunito Bold';text-align:center;text-anchor:middle"
         id="tspan1928">Input/</tspan><tspan
         sodipodi:role="line"
         x="112.31969"
         y="1108.3811"
         style="font-style:normal;font-variant:normal;font-weight:bold;font-stretch:normal;font-size:13.3333px;font-family:nunito;-inkscape-font-specification:'nunito Bold';text-align:center;text-anchor:middle"
         id="tspan1932">PS3</tspan></text>
  </g>
</svg>
